<?xml version="1.0" encoding="UTF-8"?>
<svg id="Layer_1" xmlns="http://www.w3.org/2000/svg" xmlns:xlink="http://www.w3.org/1999/xlink" viewBox="0 0 853.029 251.209">
  <defs>
    <style>
      .cls-1 {
        fill: #fff;
      }

      .cls-2 {
        fill: #fff; /* Changed from #303030 to #fff for dark mode */
      }

      .cls-3 {
        fill: url(#radial-gradient);
      }

      .cls-4 {
        fill: url(#radial-gradient-2);
      }
    </style>
    <radialGradient id="radial-gradient" cx="389.185" cy="71.873" fx="389.185" fy="71.873" r="55.041" gradientUnits="userSpaceOnUse">
      <stop offset="0" stop-color="#f600fe"/>
      <stop offset=".25" stop-color="#c900fe"/>
      <stop offset=".5" stop-color="#a136ff"/>
      <stop offset=".75" stop-color="#5142f0"/>
      <stop offset=".939" stop-color="#0033d9"/>
    </radialGradient>
    <radialGradient id="radial-gradient-2" cx="12.827" cy="22.497" fx="12.827" fy="22.497" r="401.911" xlink:href="#radial-gradient"/>
  </defs>
  <g>
    <path class="cls-2" d="M354.791,99.884h-39.825v-20.89h-20.478v93.22h20.478v-20.89h39.825v20.89h20.353v-93.22h-20.353v20.89ZM314.966,134.113v-17.016h39.825v17.016h-39.825Z"/>
    <rect class="cls-2" x="394.617" y="104.624" width="19.599" height="67.591"/>
    <path class="cls-2" d="M451.151,113.619v-8.995h-18.719v67.591h19.599v-31.911c0-6.449,1.633-11.223,4.899-14.322,3.266-3.097,7.663-4.648,13.191-4.648.67,0,1.361.043,2.073.125.711.085,1.446.211,2.199.377v-18.217c-6.366,0-11.769,1.236-16.206,3.706-2.873,1.599-5.181,3.731-7.036,6.294Z"/>
    <path class="cls-2" d="M534.383,107.89c-5.32-2.846-11.287-4.271-17.902-4.271-6.87,0-13.047,1.488-18.532,4.46-5.486,2.974-9.758,7.098-12.814,12.375-3.059,5.277-4.586,11.265-4.586,17.966s1.59,12.669,4.774,17.902c3.182,5.235,7.663,9.36,13.443,12.375,5.779,3.015,12.52,4.522,20.226,4.522,6.114,0,11.515-.942,16.208-2.826,4.689-1.884,8.583-4.586,11.683-8.103l-10.427-11.307c-2.262,2.18-4.755,3.813-7.475,4.899-2.724,1.09-5.843,1.633-9.36,1.633-4.104,0-7.622-.731-10.554-2.198-2.932-1.464-5.235-3.581-6.909-6.345-.921-1.518-1.564-3.203-1.978-5.024h51.1c.082-.837.167-1.737.251-2.701.083-.962.126-1.822.126-2.575,0-7.287-1.551-13.526-4.648-18.719-3.1-5.192-7.308-9.213-12.626-12.062ZM507.749,120.643c2.553-1.465,5.506-2.199,8.857-2.199s6.281.734,8.794,2.199c2.513,1.466,4.479,3.498,5.905,6.093.941,1.718,1.521,3.658,1.803,5.779h-33.159c.326-2.097.915-4.018,1.832-5.716,1.423-2.638,3.412-4.689,5.968-6.155Z"/>
    <path class="cls-2" d="M614.097,110.906c-5.697-4.857-13.694-7.287-23.996-7.287-5.361,0-10.637.691-15.829,2.073-5.195,1.382-9.633,3.413-13.317,6.093l6.91,13.695c2.513-1.926,5.506-3.455,8.983-4.586,3.475-1.131,7.014-1.697,10.616-1.697,5.277,0,9.19,1.175,11.747,3.519,2.553,2.345,3.831,5.612,3.831,9.799v.126h-15.453c-6.953,0-12.563.838-16.835,2.513-4.271,1.676-7.392,4.042-9.359,7.097-1.969,3.059-2.953,6.555-2.953,10.491,0,3.853,1.024,7.33,3.078,10.427,2.052,3.1,4.963,5.549,8.732,7.35,3.77,1.8,8.249,2.7,13.443,2.7,5.947,0,10.805-1.15,14.574-3.455,2.57-1.57,4.551-3.614,6.03-6.061v8.512h18.342v-38.569c0-10.302-2.848-17.881-8.543-22.739ZM597.451,157.766c-2.638,1.508-5.633,2.262-8.983,2.262s-6.011-.731-7.977-2.198c-1.969-1.465-2.953-3.455-2.953-5.968,0-2.262.858-4.146,2.575-5.654,1.715-1.507,4.879-2.26,9.485-2.26h13.442v6.91c-1.089,3.099-2.953,5.402-5.59,6.909Z"/>
    <path class="cls-2" d="M697.452,107.954c-5.068-2.89-10.826-4.335-17.274-4.335-5.612,0-10.553,1.256-14.826,3.769-2.016,1.186-3.805,2.687-5.402,4.452v-32.845h-19.599v93.22h18.719v-7.794c1.708,2.07,3.684,3.786,5.968,5.093,4.313,2.472,9.36,3.706,15.139,3.706,6.448,0,12.205-1.444,17.274-4.333,5.067-2.89,9.087-6.93,12.062-12.124,2.971-5.192,4.46-11.307,4.46-18.342s-1.488-13.148-4.46-18.343c-2.975-5.192-6.994-9.234-12.062-12.123ZM691.8,148.47c-1.551,2.849-3.602,5.006-6.156,6.47-2.556,1.466-5.464,2.199-8.732,2.199s-6.198-.733-8.794-2.199c-2.596-1.464-4.669-3.622-6.219-6.47-1.55-2.846-2.324-6.197-2.324-10.05,0-3.936.774-7.287,2.324-10.051,1.55-2.764,3.623-4.877,6.219-6.344,2.596-1.465,5.528-2.199,8.794-2.199s6.176.734,8.732,2.199c2.554,1.467,4.605,3.58,6.156,6.344,1.549,2.764,2.324,6.115,2.324,10.051,0,3.853-.776,7.204-2.324,10.05Z"/>
    <rect class="cls-2" x="727.038" y="78.994" width="19.599" height="93.22"/>
    <path class="cls-2" d="M826.413,119.952c-3.1-5.192-7.308-9.213-12.626-12.062-5.32-2.846-11.287-4.271-17.902-4.271-6.869,0-13.047,1.488-18.532,4.46-5.486,2.974-9.758,7.098-12.814,12.375-3.059,5.277-4.586,11.265-4.586,17.966s1.59,12.669,4.774,17.902c3.182,5.235,7.663,9.36,13.443,12.375,5.779,3.015,12.52,4.522,20.226,4.522,6.114,0,11.515-.942,16.208-2.826,4.689-1.884,8.583-4.586,11.683-8.103l-10.427-11.307c-2.262,2.18-4.755,3.813-7.475,4.899-2.723,1.09-5.843,1.633-9.36,1.633-4.104,0-7.622-.731-10.554-2.198-2.932-1.464-5.235-3.581-6.909-6.345-.921-1.518-1.564-3.203-1.978-5.024h51.1c.082-.837.167-1.737.251-2.701.083-.962.126-1.822.126-2.575,0-7.287-1.551-13.526-4.648-18.719ZM787.153,120.643c2.553-1.465,5.506-2.199,8.857-2.199s6.281.734,8.794,2.199c2.513,1.466,4.479,3.498,5.905,6.093.941,1.718,1.521,3.658,1.803,5.779h-33.159c.326-2.097.915-4.018,1.832-5.716,1.423-2.638,3.412-4.689,5.968-6.155Z"/>
  </g>
  <circle class="cls-3" cx="404.416" cy="85.432" r="10.931"/>
  <rect class="cls-4" x="21.968" y="21.968" width="207.273" height="207.273" rx="49.032" ry="49.032"/>
  <path class="cls-1" d="M153.948,56.886v31.148h-59.382v-31.148h-30.535v138.998h30.535v-31.148h59.382v31.148h30.347V56.886h-30.347ZM94.566,139.071v-25.372h59.382v25.372h-59.382Z"/>
</svg> 